<svg xmlns="http://www.w3.org/2000/svg" viewBox="0 0 32 32" width="32" height="32">
  <rect width="32" height="32" rx="8" fill="#3046b8"/>
  <g transform="translate(2.24 2.24) scale(0.43)">
    <path fill="#fff" fill-rule="evenodd" d="M12 7C14.5 13 17.5 16.5 22 18.5C26.5 17.3 37.5 17.3 42 18.5C46.5 16.5 49.5 13 52 7C56 13 59 19 60 26C61 29 61 31 61 34C61 47 48 57 32 57C16 57 3 47 3 34C3 31 3 29 4 26C5 19 8 13 12 7ZM14.1 39.4a5.7 5.7 0 1 0 11.4 0a5.7 5.7 0 1 0 -11.4 0ZM38.5 39.4a5.7 5.7 0 1 0 11.4 0a5.7 5.7 0 1 0 -11.4 0Z"/>
  </g>
</svg>
